<svg id="icons" enable-background="new 0 0 64 64" height="512" viewBox="0 0 64 64" width="512" xmlns="http://www.w3.org/2000/svg"><g><g><path d="m61.27 59.5.23 3h-26.01l.23-3z" fill="#656d78"/></g><g><path d="m60.5 49.51.77 9.99h-25.55l.77-9.99z" fill="#f7c292"/></g><g><path d="m50.5 6.31c.1-1.02.96-1.8 1.99-1.8v-.01h2c1.109 0 2.01.9 2.01 2.01v6c0-1.1.89-2 2-2v-.01h1.99c1.109 0 2.01.9 2.01 2.01v30l-2 7h-24.01l-3.99-8.98.01-.021v-17c0-.069 0-.14-.01-.2.1-1.01.96-1.8 1.99-1.8 2.21 0 4.01 1.79 4.01 4v-18.989l-.01-.01c0-1.109.899-2 2-2v-.01h2c1.109 0 2.01.9 2.01 2.01v-4.01h-.01c.01-1.11.899-1.99 2-1.99v-.01h2c1.109 0 2 .89 2.01 2v.01z" fill="#ffd2a6"/></g><g><path d="m13.5 6.31c-.1-1.02-.96-1.8-1.99-1.8v-.01h-2c-1.11 0-2.01.9-2.01 2.01v6c0-1.1-.89-2-2-2v-.01h-1.99c-1.109 0-2.01.9-2.01 2.01v30l2 7h24.01l3.99-8.979-.01-.021v-17c0-.069 0-.14.01-.2-.1-1.01-.96-1.8-1.99-1.8-2.21 0-4.01 1.79-4.01 4v-18.99l.01-.01c0-1.109-.899-2-2-2v-.01h-2c-1.109 0-2.01.9-2.01 2.01v-4.01h.01c-.01-1.11-.899-1.99-2-1.99v-.01h-2c-1.109 0-2 .89-2.01 2v.01z" fill="#ffd2a6"/></g><g><path d="m27.51 49.51.77 9.99h-25.55l.77-9.99z" fill="#f7c292"/></g><g><path d="m28.28 59.5.23 3h-26.01l.23-3z" fill="#656d78"/></g><path d="m35.49 62.5c0 .553.447 1 1 1h24.01c.553 0 1-.447 1-1z" fill="#656d78"/><path d="m2.5 62.5c0 .553.447 1 1 1h24.01c.553 0 1-.447 1-1z" fill="#656d78"/><g><g fill="#f7c292"><path d="m44.498 4.503v23.002c.553 0 1-.447 1-1v-21.002c0-.553-.447-1-1-1z"/><path d="m50.5 6.298-.002 21.208c.553 0 1-.447 1-1v-21.737c-.545.314-.934.873-.998 1.529z"/><path d="m57.5 26.505v-15.723c-.598.345-1 .982-1 1.726v14.997c.553 0 1-.447 1-1z"/><path d="m38.502 21.532v10.972c.553 0 1-.447 1-1v-8.972c0-.553-.447-1-1-1z"/><path d="m7.5 10.508v16.997c.553 0 1-.447 1-1v-14.997c0-.553-.447-1-1-1z"/><path d="m13.502 4.503v23.003c.553 0 1-.447 1-1v-21.003c0-.553-.447-1-1-1z"/></g><g><path d="m20.502 26.505v-21.729c-.59.342-.992.97-1 1.702v21.026c.553.001 1-.446 1-.999z" fill="#f7c292"/></g><g><path d="m26.504 31.504v-8.621c-.607.696-.99 1.594-1 2.587v7.034c.553 0 1-.447 1-1z" fill="#f7c292"/></g></g></g></svg>